<svg width="11" height="8" viewBox="0 0 11 8" fill="none" xmlns="http://www.w3.org/2000/svg">
<path d="M11 7.56873C11 7.68374 10.9658 7.78437 10.8974 7.87062C10.829 7.95687 10.7264 8 10.5896 8H10.2407C10.1039 8 9.9944 7.97125 9.91231 7.91375C9.81654 7.84187 9.71393 7.71968 9.60448 7.54717L5.5 1.31536L1.39552 7.54717C1.28607 7.71968 1.1903 7.84187 1.10821 7.91375C1.01244 7.97125 0.896145 8 0.759328 8H0.410449C0.273633 8 0.171021 7.95687 0.102613 7.87062C0.0342044 7.78437 0 7.68374 0 7.56873C0 7.4681 0.0342044 7.36029 0.102613 7.24528C0.157339 7.13028 0.205224 7.04403 0.246269 6.98652L4.43284 0.625337C4.58333 0.395328 4.73383 0.237197 4.88433 0.150944C5.02114 0.0503148 5.18532 2.37655e-07 5.37687 2.37655e-07H5.62313C5.801 2.37655e-07 5.96517 0.0503148 6.11567 0.150944C6.26617 0.237197 6.41667 0.395328 6.56716 0.625337L10.7537 6.98652C10.7948 7.04403 10.8495 7.13028 10.9179 7.24528C10.9726 7.36029 11 7.4681 11 7.56873Z" fill="black"/>
</svg>
