<?xml version="1.0" encoding="UTF-8" standalone="no"?>
<!DOCTYPE svg PUBLIC "-//W3C//DTD SVG 1.1//EN" "http://www.w3.org/Graphics/SVG/1.1/DTD/svg11.dtd">
<svg width="100%" height="100%" viewBox="0 0 248 368" version="1.1" xmlns="http://www.w3.org/2000/svg" xmlns:xlink="http://www.w3.org/1999/xlink" xml:space="preserve" xmlns:serif="http://www.serif.com/" style="fill-rule:evenodd;clip-rule:evenodd;stroke-linecap:round;stroke-linejoin:round;stroke-miterlimit:1.5;">
    <g transform="matrix(1,0,0,1,-592.735507,-686.082582)">
        <g>
            <path d="M730.937,765.144C710.613,765.913 700.811,779.138 702.645,792.371C705.164,810.546 743.718,808.84 749.553,797.808C758.071,781.704 744.09,767.571 730.937,765.144Z" style="fill:none;stroke:black;stroke-width:16.67px;"/>
            <path d="M702.802,759.069C702.816,757.987 688.775,690.445 735.41,694.6C770.497,697.727 751.133,753.38 749.418,758.308C793.131,705.642 823.848,734.777 824.288,739.832C828.694,790.412 772.098,785.265 768.598,785.43C778.719,785.894 824.71,772.299 819.234,832.01C817.406,851.942 785.632,861.923 769.869,855.063C754.103,848.201 742.287,813.011 740.898,808.877C740.268,815.852 734.581,878.767 694.267,882.978C691.55,883.262 641.989,835.851 688.091,800.582C682.393,800.451 594.642,814.969 601.445,753.328C601.689,751.111 633.548,701.725 682.995,761.061" style="fill:none;stroke:black;stroke-width:16.67px;"/>
            <g transform="matrix(1,0,0,0.663959,0,297.618324)">
                <path d="M745.938,885.661C745.938,963.242 751.183,967.816 701.177,1026.58C656.341,1079.267 655.76,1087.875 655.319,1094.41C654.375,1108.41 685.331,1124.7 688.343,1126.703" style="fill:none;stroke:black;stroke-width:19.64px;"/>
            </g>
            <g transform="matrix(-0.224253,0.974531,-0.974531,-0.224253,1899.46862,517.290232)">
                <path d="M684.502,975.131C684.502,975.131 671.12,944.677 667.815,946.407C632.143,965.074 630.565,958.742 590.403,959.965C638.011,981.686 635.944,984.516 676.679,1017.982C684.001,1001.79 683.903,994.823 683.903,994.823" style="fill:none;stroke:black;stroke-width:16.67px;"/>
            </g>
        </g>
    </g>
</svg>
