<?xml version="1.0" encoding="UTF-8" standalone="no"?>
<!DOCTYPE svg PUBLIC "-//W3C//DTD SVG 1.1//EN" "http://www.w3.org/Graphics/SVG/1.1/DTD/svg11.dtd">
<svg width="100%" height="100%" viewBox="0 0 1415 1759" version="1.1" xmlns="http://www.w3.org/2000/svg" xmlns:xlink="http://www.w3.org/1999/xlink" xml:space="preserve" xmlns:serif="http://www.serif.com/" style="fill-rule:evenodd;clip-rule:evenodd;stroke-linecap:round;stroke-linejoin:round;stroke-miterlimit:1.5;">
    <g id="Mesa-de-trabajo1" serif:id="Mesa de trabajo1" transform="matrix(0.658446,0,0,0.638012,0,0)">
        <rect x="0" y="0" width="2149" height="2757" style="fill:none;"/>
        <clipPath id="_clip1">
            <rect x="0" y="0" width="2149" height="2757"/>
        </clipPath>
        <g clip-path="url(#_clip1)">
            <g id="SILLA" transform="matrix(1.518728,0,0,1.567368,-668.240283,-1059.540648)">
                <g transform="matrix(1,0,0,1,-105.338268,-202.866129)">
                    <path d="M847,979C961.402,940.688 1112.676,957.386 1150.361,965.709C1325.604,1004.411 1413.252,1205.364 1484,1247C1543.468,1281.998 1642.688,1313.572 1704.839,1331.382C1738.996,1341.139 1764.083,1370.268 1768.667,1405.495L1814,1753.937L1949.053,2417.687C1950.296,2423.798 1948.826,2430.148 1945.022,2435.09C1941.218,2440.033 1935.456,2443.08 1929.23,2443.443L1870.959,2446.837C1859.493,2447.505 1849.269,2439.67 1846.933,2428.425L1723,1832L1240.157,1941C1194.991,2176.626 1192.365,2398.577 1171.563,2622.01C1171.232,2625.548 1168.577,2628.427 1165.078,2629.044L1120.968,2636.817C1111.107,2638.555 1100.987,2638.129 1091.307,2635.569L1047.296,2623.929C1042.926,2622.774 1039.766,2618.982 1039.416,2614.476L987.525,1946.048L937,1930L824.598,2419.675C822.29,2429.73 813.35,2436.864 803.034,2436.883C790.125,2436.907 772.299,2436.94 757.212,2436.965C749.791,2436.979 742.734,2433.757 737.885,2428.141C733.035,2422.524 730.875,2415.073 731.97,2407.734C748.641,2296.28 807.072,1897.673 812.006,1753.937C815.712,1645.989 797.124,1444.092 797.124,1444.092C797.124,1444.092 648.685,1390.029 595,1343C545.458,1299.6 536.16,1244.161 577,1169C624.135,1082.254 733.056,1017.159 847,979ZM1059.056,1054.739C1033.839,1265.114 1057.751,1468.959 1084.805,1647.461C1085.667,1653.145 1090.981,1657.06 1096.665,1656.199C1102.349,1655.337 1106.265,1650.023 1105.403,1644.339C1078.604,1467.522 1054.762,1265.607 1079.741,1057.218C1080.425,1051.51 1076.346,1046.32 1070.638,1045.636C1064.93,1044.951 1059.74,1049.03 1059.056,1054.739ZM1012.527,1432.321C1001.987,1421.927 989.425,1412.622 975.658,1404.329C953.52,1299.029 926.401,1238.271 920.293,1223.624C884.819,1138.569 841.15,1088.552 834.173,1078.168C830.966,1073.397 824.489,1072.126 819.717,1075.332C814.945,1078.539 813.674,1085.016 816.881,1089.788C823.69,1099.921 866.448,1148.643 901.065,1231.644C906.704,1245.166 930.616,1298.821 951.5,1391.317C928.104,1380.01 902.859,1371.104 878.954,1364.299C859.122,1279.313 820.901,1187.171 768.994,1125.042C765.308,1120.63 758.733,1120.041 754.321,1123.727C749.909,1127.413 749.32,1133.987 753.006,1138.399C800.3,1195.007 835.56,1277.578 855.402,1355.639C825.06,1342.675 786.639,1321.248 757.28,1306.719C745.184,1255.132 727.829,1217.791 725,1214C693.062,1171.193 675,1206 675,1206C668.177,1223.912 669.66,1242.349 676.749,1259.299C683.512,1275.47 695.377,1290.287 710,1302C716.805,1307.451 726.984,1313.833 739.6,1320.621C740.412,1321.442 741.376,1322.14 742.475,1322.67C777.467,1339.548 828.023,1368.221 862.391,1380.774C865.54,1381.924 873.112,1384.384 873.269,1384.341C926.872,1399.602 988.708,1424.942 1014.059,1467.345C1043.765,1517.031 1037.998,1527.34 1046.61,1648.317C1053.86,1750.17 1098.6,2535.592 1098.6,2535.592C1098.927,2541.332 1103.853,2545.727 1109.592,2545.4C1115.332,2545.073 1119.727,2540.147 1119.4,2534.408C1119.4,2534.408 1074.643,1748.725 1067.39,1646.837C1058.983,1528.72 1062.566,1511.065 1038.148,1467.357C1038.418,1466.198 1038.492,1464.972 1038.338,1463.722C1027.283,1374.289 953.17,1039.725 953.17,1039.725C951.926,1034.112 946.359,1030.565 940.746,1031.808C935.133,1033.052 931.586,1038.619 932.83,1044.232C932.83,1044.232 992.461,1313.216 1012.527,1432.321ZM1283.079,1186.197C1275.464,1174.287 1261.198,1168.43 1247.411,1171.555C1233.624,1174.68 1223.277,1186.115 1221.541,1200.145C1205.604,1329.395 1186.753,1552.16 1234.892,1620C1304.077,1717.5 1688,1689 1688,1689L1674.767,1519.982C1669.608,1454.093 1624.364,1398.204 1560.994,1379.44C1499.452,1361.274 1426.72,1336.863 1389.539,1313.835C1356.176,1293.173 1314.683,1235.651 1283.079,1186.197ZM883.338,1496.013C893.76,1546.832 899.887,1604.147 907.618,1698.167C908.09,1703.897 913.124,1708.166 918.854,1707.695C924.583,1707.224 928.853,1702.19 928.382,1696.46C920.555,1601.284 914.297,1543.271 903.747,1491.828C902.592,1486.196 897.082,1482.561 891.45,1483.716C885.818,1484.871 882.183,1490.382 883.338,1496.013ZM1134.192,1081.893C1121.972,1141.706 1117.489,1196.815 1114.844,1259.825C1110.591,1361.152 1120.76,1489.95 1134.747,1620.013C1135.362,1625.73 1140.502,1629.871 1146.218,1629.257C1151.934,1628.642 1156.076,1623.502 1155.461,1617.786C1141.594,1488.841 1131.442,1361.154 1135.659,1260.699C1138.255,1198.857 1142.611,1144.767 1154.604,1086.063C1155.755,1080.431 1152.116,1074.923 1146.483,1073.773C1140.851,1072.622 1135.343,1076.26 1134.192,1081.893Z" style="fill:white;stroke:black;stroke-opacity:0;stroke-width:20.83px;"/>
                </g>
            </g>
            <g id="YO" transform="matrix(1.518728,0,0,1.567368,-668.240283,-1059.540648)">
                <g transform="matrix(1,0,0,1,-105.338268,-202.866129)">
                    <path d="M1036.939,899.365C935.373,905.233 865.451,963.224 850.121,1003.499C838.067,1035.168 829.195,1066.802 845.767,1102.84C907.256,1236.557 1209.158,1211.544 1217.371,1037.187C1217.795,1028.179 1231.193,955.28 1151.62,932.62C1088.826,914.738 1080.299,910.149 1037.635,927.45" style="fill:white;stroke:black;stroke-width:20.83px;"/>
                </g>
                <g transform="matrix(1,0,0,1,-105.338268,-202.866129)">
                    <path d="M1533.917,1285.696C1456.457,1152.572 1403.624,1278.352 1225.988,1276.8C1038.638,1275.164 1007.779,1222.953 816.037,1372.006C815.618,1385.346 825.151,1444.054 804.781,1521.927" style="fill:none;stroke:black;stroke-width:20.83px;"/>
                </g>
                <g transform="matrix(1,0,0,1,-105.338268,-202.866129)">
                    <path d="M785.517,1543.587C721.736,1586.049 830.008,1632.639 851.774,1583.895C863.973,1556.575 824.945,1545.813 808.052,1547.542" style="fill:white;stroke:black;stroke-width:20.83px;"/>
                </g>
                <g transform="matrix(0.583958,0,0,1,961.524046,-458.429646)">
                    <path d="M785.517,1543.587C721.736,1586.049 830.008,1632.639 851.774,1583.895C863.973,1556.575 824.945,1545.813 808.052,1547.542" style="fill:none;stroke:black;stroke-width:25.44px;"/>
                </g>
                <g transform="matrix(1,0,0,1,-105.338268,-202.866129)">
                    <path d="M1016.836,1018.509C1016.836,1018.509 1016.306,1036.064 1016.687,1045.046" style="fill:none;stroke:black;stroke-width:20.83px;"/>
                </g>
                <g transform="matrix(1,0,0,1,-105.338268,-202.866129)">
                    <path d="M1111.924,1045.046L1113.803,1018.509" style="fill:none;stroke:black;stroke-width:20.83px;"/>
                </g>
                <g transform="matrix(1,0,0,1,-105.338268,-202.866129)">
                    <path d="M1032.535,1123.538C1098.761,1123.538 1062.776,1122.938 1075.567,1124.059" style="fill:none;stroke:black;stroke-width:20.83px;"/>
                </g>
                <g transform="matrix(1,0,0,1,-105.338268,-202.866129)">
                    <path d="M1299.799,2111.204C1298.853,2133.664 1295.669,2140.137 1274.856,2144.245C1236.258,2151.864 1279.243,2192.706 1300.81,2186.301C1314.713,2182.172 1387.636,2147.546 1391.043,2129.915C1393.586,2116.76 1350.623,2122.239 1323.385,2117.6" style="fill:white;stroke:black;stroke-width:20.83px;"/>
                </g>
                <g transform="matrix(1.673793,0,0,1.192371,-689.308102,-743.577346)">
                    <path d="M1274.856,2144.245C1236.258,2151.864 1279.243,2192.706 1300.81,2186.301C1302.84,2185.698 1305.021,2184.594 1307.274,2183.093C1320.451,2174.316 1336.134,2151.971 1339.043,2136.915C1341.586,2123.76 1333.623,2129.239 1306.385,2124.6" style="fill:white;stroke:black;stroke-width:14.34px;"/>
                </g>
                <g transform="matrix(1,0,0,1,-105.338268,-202.866129)">
                    <path d="M1240.157,1700.306C1291.967,1737.229 1372.421,1753.607 1353.628,1813.727C1296.918,1995.149 1301.344,2074.511 1299.799,2111.204" style="fill:none;stroke:black;stroke-width:20.83px;"/>
                </g>
                <g transform="matrix(1,0,0,1,-105.338268,-202.866129)">
                    <path d="M1050.803,1213.197C1060.626,1519.922 1200.46,1643.208 1282.097,1656.673C1364.356,1670.24 1585.075,1716.049 1590.988,1727.786C1604.625,1754.853 1557.419,1994.888 1553.177,2012.619" style="fill:none;stroke:black;stroke-width:20.83px;"/>
                </g>
            </g>
        </g>
    </g>
</svg>
